<svg width="110" height="110" viewBox="0 0 110 110" fill="none" xmlns="http://www.w3.org/2000/svg">
    <g clip-path="url(#clip0_2_935)">
        <path d="M10 50H40V60H10V50Z" fill="#D5D5D5"/>
        <path d="M10 60H40V80H10V60Z" fill="white"/>
        <path d="M70 60H100V80H70V60Z" fill="white"/>
        <path d="M40 50H70V70H40V50Z" fill="white"/>
        <path d="M40 20H70V40H40V20Z" fill="white"/>
        <path d="M50 40H60V50H50V40Z" fill="white"/>
        <path d="M50 10H60V20H50V10Z" fill="white"/>
        <path d="M0 60H10V80H0V60Z" fill="#D5D5D5"/>
        <path d="M70 20H80V40H70V20Z" fill="#D5D5D5"/>
        <path d="M30 20H40V40H30V20Z" fill="#D5D5D5"/>
        <path d="M10 80H40V90H10V80Z" fill="#D5D5D5"/>
        <path d="M40 100H70V110H40V100Z" fill="#D5D5D5"/>
        <path d="M40 70H70V80H40V70Z" fill="#D5D5D5"/>
        <path d="M70 50H100V60H70V50Z" fill="#D5D5D5"/>
        <path d="M100 60H110V80H100V60Z" fill="#D5D5D5"/>
        <path d="M50 80H60V100H50V80Z" fill="#D5D5D5"/>
        <path d="M70 80H100V90H70V80Z" fill="#D5D5D5"/>
        <path d="M40 40H50V50H40V40Z" fill="#D5D5D5"/>
        <path d="M60 10H70V20H60V10Z" fill="#D5D5D5"/>
        <path d="M50 0H60V10H50V0Z" fill="#D5D5D5"/>
        <path d="M40 10H50V20H40V10Z" fill="#D5D5D5"/>
        <path d="M60 40H70V50H60V40Z" fill="#D5D5D5"/>
    </g>
    <defs>
        <clipPath id="clip0_2_935">
            <rect width="110" height="110" fill="white"/>
        </clipPath>
    </defs>
</svg>
