<svg width="890" height="110" viewBox="0 0 890 110" fill="none" xmlns="http://www.w3.org/2000/svg">
    <g clip-path="url(#clip0_1_3)">
        <path d="M10 50H40V60H10V50Z" fill="black"/>
        <path d="M10 60H40V80H10V60Z" fill="#262626"/>
        <path d="M70 60H100V80H70V60Z" fill="#262626"/>
        <path d="M40 50H70V70H40V50Z" fill="#262626"/>
        <path d="M40 20H70V40H40V20Z" fill="#262626"/>
        <path d="M50 40H60V50H50V40Z" fill="#262626"/>
        <path d="M50 10H60V20H50V10Z" fill="#262626"/>
        <path d="M0 60H10V80H0V60Z" fill="black"/>
        <path d="M70 20H80V40H70V20Z" fill="black"/>
        <path d="M30 20H40V40H30V20Z" fill="black"/>
        <path d="M10 80H40V90H10V80Z" fill="black"/>
        <path d="M40 100H70V110H40V100Z" fill="black"/>
        <path d="M40 70H70V80H40V70Z" fill="black"/>
        <path d="M70 50H100V60H70V50Z" fill="black"/>
        <path d="M100 60H110V80H100V60Z" fill="black"/>
        <path d="M50 80H60V100H50V80Z" fill="black"/>
        <path d="M70 80H100V90H70V80Z" fill="black"/>
        <path d="M40 40H50V50H40V40Z" fill="black"/>
        <path d="M60 10H70V20H60V10Z" fill="black"/>
        <path d="M50 0H60V10H50V0Z" fill="black"/>
        <path d="M40 10H50V20H40V10Z" fill="black"/>
        <path d="M60 40H70V50H60V40Z" fill="black"/>
        <path d="M143 68.5V64H138.5V59.5H134V46H138.5V41.5H143V37H165.5V41.5H147.5V46H143V59.5H147.5V64H156.5V55H152V50.5H165.5V68.5H143ZM170.9 68.5V64H166.4V59.5H170.9V55H188.9V50.5H170.9V46H193.4V50.5H197.9V68.5H170.9ZM175.4 64H188.9V59.5H175.4V64ZM198.8 68.5V46H225.8V50.5H230.3V68.5H221.3V50.5H216.8V68.5H207.8V50.5H203.3V68.5H198.8ZM235.7 68.5V64H231.2V50.5H235.7V46H258.2V50.5H262.7V59.5H240.2V64H258.2V68.5H235.7ZM240.2 55H253.7V50.5H240.2V55ZM300.5 68.5V64H296V59.5H305V64H318.5V55H300.5V50.5H296V41.5H300.5V37H323V41.5H327.5V46H318.5V41.5H305V50.5H323V55H327.5V64H323V68.5H300.5ZM332.9 68.5V64H328.4V50.5H332.9V46H359.9V50.5H337.4V64H359.9V68.5H332.9ZM365.3 68.5V64H360.8V50.5H365.3V46H387.8V50.5H392.3V64H387.8V68.5H365.3ZM369.8 64H383.3V50.5H369.8V64ZM406.7 50.5H411.2V55H406.7V68.5H397.7V46H406.7V50.5ZM424.7 46V50.5H411.2V46H424.7ZM430.1 68.5V64H425.6V50.5H430.1V46H452.6V50.5H457.1V59.5H434.6V64H452.6V68.5H430.1ZM434.6 55H448.1V50.5H434.6V55ZM462.5 68.5V64H458V37H467V46H485V50.5H489.5V64H485V68.5H462.5ZM467 64H480.5V50.5H467V64ZM494.9 68.5V64H490.4V50.5H494.9V46H517.4V50.5H521.9V64H517.4V68.5H494.9ZM499.4 64H512.9V50.5H499.4V64ZM527.3 68.5V64H522.8V59.5H527.3V55H545.3V50.5H527.3V46H549.8V50.5H554.3V68.5H527.3ZM531.8 64H545.3V59.5H531.8V64ZM568.7 50.5H573.2V55H568.7V68.5H559.7V46H568.7V50.5ZM586.7 46V50.5H573.2V46H586.7ZM592.1 68.5V64H587.6V50.5H592.1V46H610.1V37H619.1V68.5H592.1ZM596.6 64H610.1V50.5H596.6V64ZM652.4 68.5V37H661.4V41.5H665.9V46H670.4V41.5H674.9V37H683.9V68.5H674.9V50.5H670.4V59.5H665.9V50.5H661.4V68.5H652.4ZM689.3 68.5V64H684.8V59.5H689.3V55H707.3V50.5H689.3V46H711.8V50.5H716.3V68.5H689.3ZM693.8 64H707.3V59.5H693.8V64ZM717.2 68.5V46H744.2V50.5H748.7V68.5H739.7V50.5H726.2V68.5H717.2ZM754.1 68.5V64H749.6V59.5H754.1V55H772.1V50.5H754.1V46H776.6V50.5H781.1V68.5H754.1ZM758.6 64H772.1V59.5H758.6V64ZM786.5 73V68.5H804.5V64H786.5V59.5H782V50.5H786.5V46H813.5V68.5H809V73H786.5ZM791 59.5H804.5V50.5H791V59.5ZM818.9 68.5V64H814.4V50.5H818.9V46H841.4V50.5H845.9V59.5H823.4V64H841.4V68.5H818.9ZM823.4 55H836.9V50.5H823.4V55ZM860.3 50.5H864.8V55H860.3V68.5H851.3V46H860.3V50.5ZM878.3 46V50.5H864.8V46H878.3Z"
              fill="black"/>
    </g>
    <defs>
        <clipPath id="clip0_1_3">
            <rect width="890" height="110" fill="white"/>
        </clipPath>
    </defs>
</svg>
