<svg width="236" height="110" viewBox="0 0 236 110" fill="none" xmlns="http://www.w3.org/2000/svg">
    <g clip-path="url(#clip0_2_911)">
        <path d="M10 50H40V60H10V50Z" fill="black"/>
        <path d="M10 60H40V80H10V60Z" fill="#262626"/>
        <path d="M70 60H100V80H70V60Z" fill="#262626"/>
        <path d="M40 50H70V70H40V50Z" fill="#262626"/>
        <path d="M40 20H70V40H40V20Z" fill="#262626"/>
        <path d="M50 40H60V50H50V40Z" fill="#262626"/>
        <path d="M50 10H60V20H50V10Z" fill="#262626"/>
        <path d="M0 60H10V80H0V60Z" fill="black"/>
        <path d="M70 20H80V40H70V20Z" fill="black"/>
        <path d="M30 20H40V40H30V20Z" fill="black"/>
        <path d="M10 80H40V90H10V80Z" fill="black"/>
        <path d="M40 100H70V110H40V100Z" fill="black"/>
        <path d="M40 70H70V80H40V70Z" fill="black"/>
        <path d="M70 50H100V60H70V50Z" fill="black"/>
        <path d="M100 60H110V80H100V60Z" fill="black"/>
        <path d="M50 80H60V100H50V80Z" fill="black"/>
        <path d="M70 80H100V90H70V80Z" fill="black"/>
        <path d="M40 40H50V50H40V40Z" fill="black"/>
        <path d="M60 10H70V20H60V10Z" fill="black"/>
        <path d="M50 0H60V10H50V0Z" fill="black"/>
        <path d="M40 10H50V20H40V10Z" fill="black"/>
        <path d="M60 40H70V50H60V40Z" fill="black"/>
        <path d="M143 68.5V64H138.5V59.5H134V46H138.5V41.5H143V37H165.5V41.5H147.5V46H143V59.5H147.5V64H156.5V55H152V50.5H165.5V68.5H143ZM170.9 68.5V64H166.4V59.5H175.4V64H188.9V55H170.9V50.5H166.4V41.5H170.9V37H193.4V41.5H197.9V46H188.9V41.5H175.4V50.5H193.4V55H197.9V64H193.4V68.5H170.9ZM198.8 68.5V37H207.8V41.5H212.3V46H216.8V41.5H221.3V37H230.3V68.5H221.3V50.5H216.8V59.5H212.3V50.5H207.8V68.5H198.8Z"
              fill="black"/>
    </g>
    <defs>
        <clipPath id="clip0_2_911">
            <rect width="236" height="110" fill="white"/>
        </clipPath>
    </defs>
</svg>
